<?xml version="1.0" standalone="no"?><!DOCTYPE svg PUBLIC "-//W3C//DTD SVG 1.1//EN" "http://www.w3.org/Graphics/SVG/1.1/DTD/svg11.dtd"><svg class="icon" width="200px" height="200.00px" viewBox="0 0 1024 1024" version="1.1" xmlns="http://www.w3.org/2000/svg"><path d="M755.878054 479.896216c-2.407784-130.629189-116.625297-234.855784-256.525838-235.492324-139.872865 0.636541-254.118054 104.863135-256.498162 235.492324-1.494486 81.449514 48.515459 162.124108 112.806054 212.964325l143.692108 1.107027 143.692108-1.107027c64.290595-50.840216 114.300541-131.514811 112.83373-212.964325z m-138.323027 172.889946c3.182703-2.324757 63.017514-56.015568 44.613189-182.382703-9.188324-62.989838-49.207351-100.905514-77.159784-128.498162-20.313946-20.064865-34.290162-29.612973-25.461621-27.011459 35.535568 10.599784 118.728649 30.581622 141.367351 126.533189 33.819676 143.443027-77.491892 207.899676-83.359135 211.359135z m-39.603892 137.990919a6.144 6.144 0 0 0-6.171676-6.144l-144.909837 0.083027a6.144 6.144 0 0 0-6.144 6.171676l0.055351 98.082594c0 3.404108 2.767568 6.144 6.144 6.144l144.937513-0.083027c3.404108 0 6.144-2.767568 6.144-6.171675l-0.055351-98.082595z m-78.598919 206.377514l-1.549838 0.027675c0.525838 0 1.024 0.083027 1.549838 0.083027 0.525838 0 1.024-0.055351 1.549838-0.083027l-1.549838-0.027675z" fill="#F1B7D0" /><path d="M499.352216 7.251027c-273.131243 0-494.536649 221.405405-494.536648 494.564324 0 198.739027 117.289514 370.106811 286.443243 448.678054l0.19373-89.281729s-5.756541-83.442162 51.033945-130.62919l-13.561081-6.642162c-75.499243-55.738811-126.062703-147.151568-133.645837-242.743351-0.802595-10.156973-1.107027-20.369297-0.913298-30.553946 2.961297-161.958054 138.987243-291.092757 304.985946-290.871351 165.998703-0.221405 302.024649 128.913297 304.985946 290.871351 0.19373 10.184649-0.110703 20.396973-0.940973 30.553946-7.555459 95.591784-58.118919 187.004541-133.645838 242.715676l-13.533405 6.642162c56.790486 47.214703 51.033946 130.629189 51.033946 130.629189l0.19373 88.728216c-1.411459 0.913297-2.850595 1.743568-4.28973 2.601514 171.450811-77.657946 290.705297-250.243459 290.705297-450.726054 0.027676-273.131243-221.405405-494.536649-494.508973-494.536649z" fill="#5755B3" /></svg>